<svg width="118" height="19" viewBox="0 0 118 19" fill="none" xmlns="http://www.w3.org/2000/svg">
<path d="M0.428973 17.31C0.873639 17.31 1.18797 17.2027 1.37197 16.988C1.57131 16.758 1.68631 16.4743 1.71697 16.137C1.76297 15.7843 1.78597 15.24 1.78597 14.504V3.625C1.78597 3.04233 1.80897 2.544 1.85497 2.13L0.221973 2.222V1.256C1.14197 1.256 1.79364 1.20233 2.17697 1.095C2.57564 0.987666 2.88231 0.834332 3.09697 0.634999H3.76397L3.78697 15.562C3.78697 16.16 3.74864 16.6813 3.67197 17.126L5.12097 17.057V18H0.428973V17.31ZM9.20257 3.993C8.88057 3.993 8.59691 3.86267 8.35157 3.602C8.10624 3.326 7.98357 3.004 7.98357 2.636C7.98357 2.268 8.10624 1.946 8.35157 1.67C8.61224 1.394 8.90357 1.256 9.22557 1.256C9.57824 1.256 9.86957 1.394 10.0996 1.67C10.3449 1.93067 10.4676 2.25267 10.4676 2.636C10.4676 3.004 10.3372 3.326 10.0766 3.602C9.83124 3.86267 9.53991 3.993 9.20257 3.993ZM6.92557 17.31C7.37024 17.31 7.68457 17.2027 7.86857 16.988C8.06791 16.758 8.18291 16.4743 8.21357 16.137C8.25957 15.7843 8.28257 15.24 8.28257 14.504V9.26C8.28257 8.81533 8.31324 8.317 8.37457 7.765L6.74157 7.857V6.891C7.64624 6.891 8.29024 6.83733 8.67357 6.73C9.07224 6.62267 9.37891 6.46933 9.59357 6.27H10.2606V15.562C10.2606 16.252 10.2299 16.7733 10.1686 17.126L11.6176 17.057V18H6.92557V17.31ZM18.0777 18.368C15.977 18.368 14.9344 16.9573 14.9497 14.136L14.9957 7.466L13.2247 7.489V6.5C13.9607 6.48467 14.5817 6.155 15.0877 5.511C15.609 4.85167 15.9924 4.108 16.2377 3.28H17.0197V6.5H20.8837V7.397L17.0197 7.443C17.0044 9.789 16.989 11.4143 16.9737 12.319C16.9737 13.2237 16.9737 13.7297 16.9737 13.837C16.9737 14.9257 17.104 15.7383 17.3647 16.275C17.6254 16.7963 18.0777 17.057 18.7217 17.057C19.1204 17.057 19.5114 16.9343 19.8947 16.689C20.2934 16.4437 20.6384 16.1063 20.9297 15.677L21.5507 16.183C20.9527 17.0723 20.3624 17.6627 19.7797 17.954C19.197 18.23 18.6297 18.368 18.0777 18.368ZM79.3589 18.368C78.3162 18.368 77.3579 18.1303 76.4839 17.655C75.6252 17.1797 74.9429 16.4973 74.4369 15.608C73.9309 14.7187 73.6779 13.6683 73.6779 12.457C73.6779 11.3837 73.9309 10.364 74.4369 9.398C74.9582 8.41667 75.6712 7.627 76.5759 7.029C77.4959 6.431 78.5309 6.132 79.6809 6.132C80.5089 6.132 81.2449 6.26233 81.8889 6.523C82.5329 6.78367 83.0312 7.12867 83.3839 7.558C83.7519 7.98733 83.9359 8.455 83.9359 8.961C83.9359 9.31367 83.8362 9.605 83.6369 9.835C83.4375 10.065 83.1615 10.18 82.8089 10.18C82.4715 10.18 82.2185 10.0727 82.0499 9.858C81.8812 9.628 81.7969 9.39033 81.7969 9.145C81.7969 8.76167 81.9119 8.455 82.1419 8.225C81.9732 7.74967 81.6435 7.42767 81.1529 7.259C80.6775 7.075 80.2022 6.983 79.7269 6.983C79.0215 6.983 78.3852 7.17467 77.8179 7.558C77.2659 7.94133 76.8289 8.501 76.5069 9.237C76.1849 9.973 76.0239 10.8547 76.0239 11.882C76.0239 12.9093 76.1849 13.8217 76.5069 14.619C76.8442 15.4163 77.3119 16.045 77.9099 16.505C78.5079 16.9497 79.1979 17.172 79.9799 17.172C80.6699 17.172 81.3445 16.988 82.0039 16.62C82.6785 16.2367 83.2075 15.7613 83.5909 15.194L84.1889 15.654C83.6215 16.5433 82.8855 17.218 81.9809 17.678C81.0915 18.138 80.2175 18.368 79.3589 18.368ZM85.7581 17.31C86.2027 17.31 86.5171 17.2027 86.7011 16.988C86.9004 16.758 87.0154 16.4743 87.0461 16.137C87.0921 15.7843 87.1151 15.24 87.1151 14.504V3.625C87.1151 3.04233 87.1381 2.544 87.1841 2.13L85.5511 2.222V1.256C86.4711 1.256 87.1227 1.20233 87.5061 1.095C87.9047 0.987666 88.2114 0.834332 88.4261 0.634999H89.0931L89.1161 15.562C89.1161 16.16 89.0777 16.6813 89.0011 17.126L90.4501 17.057V18H85.7581V17.31ZM97.1077 18.368C95.8043 18.368 94.846 17.9923 94.2327 17.241C93.6347 16.4897 93.3357 15.194 93.3357 13.354V9.26C93.3357 8.616 93.3663 8.11767 93.4277 7.765L91.8407 7.834V6.891H92.5537C93.1517 6.891 93.604 6.83733 93.9107 6.73C94.2173 6.62267 94.478 6.46933 94.6927 6.27H95.3597V13.285C95.3597 14.6343 95.5437 15.6233 95.9117 16.252C96.295 16.8807 96.9237 17.195 97.7977 17.195C98.365 17.195 98.917 17.0263 99.4537 16.689C100.006 16.3517 100.45 15.93 100.788 15.424V9.513C100.788 8.79233 100.826 8.20967 100.903 7.765L99.2467 7.834V6.891H99.9597C100.558 6.891 101.01 6.83733 101.317 6.73C101.623 6.62267 101.884 6.46933 102.099 6.27H102.766L102.743 14.964C102.743 15.8533 102.712 16.574 102.651 17.126L104.307 17.034V18H101.018C100.941 17.5247 100.887 17.0647 100.857 16.62C100.351 17.126 99.7603 17.5477 99.0857 17.885C98.411 18.207 97.7517 18.368 97.1077 18.368ZM111.406 18.368C110.793 18.368 110.187 18.2607 109.589 18.046C108.991 17.8313 108.47 17.471 108.025 16.965L107.473 18H106.668L106.714 3.625C106.714 3.04233 106.737 2.544 106.783 2.13L105.15 2.222V1.256C106.07 1.256 106.722 1.20233 107.105 1.095C107.504 0.987666 107.811 0.834332 108.025 0.634999H108.692V7.489C109.122 7.05967 109.628 6.73 110.21 6.5C110.808 6.25467 111.46 6.132 112.165 6.132C113.147 6.132 114.036 6.36967 114.833 6.845C115.631 7.32033 116.252 8.00267 116.696 8.892C117.156 9.78133 117.386 10.8087 117.386 11.974C117.386 13.2467 117.11 14.366 116.558 15.332C116.006 16.298 115.27 17.0493 114.35 17.586C113.43 18.1073 112.449 18.368 111.406 18.368ZM111.406 17.425C112.51 17.425 113.384 16.9803 114.028 16.091C114.688 15.1863 115.017 14.0057 115.017 12.549C115.017 10.939 114.718 9.65867 114.12 8.708C113.522 7.742 112.641 7.259 111.475 7.259C110.969 7.259 110.463 7.38167 109.957 7.627C109.467 7.857 109.045 8.17133 108.692 8.57V14.389C108.692 16.413 109.597 17.425 111.406 17.425Z" fill="#333333"/>
<path d="M22.6482 17.31C23.0929 17.31 23.4072 17.2027 23.5912 16.988C23.7906 16.758 23.9056 16.4743 23.9362 16.137C23.9822 15.7843 24.0052 15.24 24.0052 14.504V9.26C24.0052 8.616 24.0359 8.11767 24.0972 7.765L22.4642 7.857V6.891C23.3689 6.891 23.9899 6.845 24.3272 6.753C24.6646 6.64567 24.9482 6.48467 25.1782 6.27H25.8452C25.8759 6.5 25.9066 6.90633 25.9372 7.489C26.4126 7.075 26.9492 6.74533 27.5472 6.5C28.1452 6.25467 28.7356 6.132 29.3182 6.132C30.0696 6.132 30.7059 6.27 31.2272 6.546C31.7639 6.80667 32.1779 7.18233 32.4692 7.673C33.0212 7.22833 33.6346 6.86033 34.3092 6.569C34.9992 6.27767 35.6586 6.132 36.2872 6.132C37.6366 6.132 38.6179 6.546 39.2312 7.374C39.8599 8.18667 40.1589 9.49 40.1282 11.284L40.1052 15.562C40.1052 16.252 40.0746 16.7733 40.0132 17.126L41.4622 17.057V18H36.7702V17.31C37.2149 17.31 37.5292 17.2027 37.7132 16.988C37.9126 16.758 38.0276 16.4743 38.0582 16.137C38.1042 15.7843 38.1272 15.24 38.1272 14.504V11.284C38.1272 9.96533 37.9202 8.984 37.5062 8.34C37.0922 7.68067 36.4406 7.351 35.5512 7.351C35.0759 7.351 34.5929 7.45833 34.1022 7.673C33.6269 7.87233 33.2052 8.14067 32.8372 8.478C32.9906 8.95333 33.0672 9.513 33.0672 10.157L33.0212 15.562C33.0212 16.252 32.9906 16.7733 32.9292 17.126L34.3782 17.057V18H29.6862V17.31C30.1309 17.31 30.4452 17.2027 30.6292 16.988C30.8286 16.758 30.9436 16.482 30.9742 16.16C31.0049 15.8227 31.0279 15.2707 31.0432 14.504L31.0662 11.284C31.0816 9.95 30.8899 8.95333 30.4912 8.294C30.0926 7.63467 29.4562 7.305 28.5822 7.305C28.1069 7.305 27.6316 7.40467 27.1562 7.604C26.6962 7.80333 26.2976 8.07167 25.9602 8.409L25.9832 9.651V15.562C25.9832 16.252 25.9526 16.7733 25.8912 17.126L27.3402 17.057V18H22.6482V17.31ZM48.766 18.368C47.708 18.368 46.7497 18.1227 45.891 17.632C45.0477 17.126 44.3807 16.413 43.89 15.493C43.3993 14.5577 43.154 13.4843 43.154 12.273C43.154 11.1997 43.3993 10.1953 43.89 9.26C44.3807 8.30933 45.063 7.55033 45.937 6.983C46.8263 6.41567 47.8307 6.132 48.95 6.132C49.824 6.132 50.6137 6.32367 51.319 6.707C52.0243 7.09033 52.584 7.66533 52.998 8.432C53.412 9.18333 53.619 10.111 53.619 11.215L45.523 11.353C45.5077 13.193 45.8067 14.6267 46.42 15.654C47.0487 16.6813 48.0147 17.195 49.318 17.195C50.0233 17.195 50.744 17.011 51.48 16.643C52.2313 16.275 52.8063 15.8227 53.205 15.286L53.757 15.746C53.1743 16.6353 52.4153 17.2947 51.48 17.724C50.56 18.1533 49.6553 18.368 48.766 18.368ZM51.457 10.387C51.457 9.467 51.25 8.67733 50.836 8.018C50.422 7.35867 49.801 7.029 48.973 7.029C47.0717 7.029 45.9447 8.14833 45.592 10.387H51.457ZM58.8409 18.368C57.7216 18.368 56.8629 18.115 56.2649 17.609C55.6822 17.103 55.3909 16.4437 55.3909 15.631C55.3909 14.7417 55.7436 13.9903 56.4489 13.377C57.1696 12.7637 58.0666 12.3113 59.1399 12.02C60.2286 11.7133 61.3172 11.5677 62.4059 11.583V10.157C62.4059 9.16033 62.2602 8.386 61.9689 7.834C61.6776 7.26667 61.0566 6.983 60.1059 6.983C59.6306 6.983 59.1782 7.08267 58.7489 7.282C58.3196 7.48133 58.0052 7.78033 57.8059 8.179C58.0052 8.39367 58.1049 8.685 58.1049 9.053C58.1049 9.283 58.0206 9.50533 57.8519 9.72C57.6832 9.91933 57.4379 10.019 57.1159 10.019C56.7939 10.019 56.5409 9.91933 56.3569 9.72C56.1729 9.50533 56.0809 9.22933 56.0809 8.892C56.0809 8.386 56.2726 7.926 56.6559 7.512C57.0546 7.08267 57.5989 6.74533 58.2889 6.5C58.9942 6.25467 59.7762 6.132 60.6349 6.132C61.9229 6.132 62.8736 6.477 63.4869 7.167C64.1002 7.84167 64.3992 8.915 64.3839 10.387L64.3609 15.562C64.3609 16.0527 64.3302 16.574 64.2689 17.126L65.9019 17.034V18H62.6129C62.5669 17.77 62.5132 17.333 62.4519 16.689C61.3326 17.8083 60.1289 18.368 58.8409 18.368ZM59.3699 17.057C59.9526 17.057 60.4816 16.9497 60.9569 16.735C61.4322 16.505 61.9152 16.16 62.4059 15.7C62.3906 15.47 62.3829 15.079 62.3829 14.527L62.4059 12.365C61.1486 12.411 60.0292 12.6717 59.0479 13.147C58.0666 13.607 57.5759 14.32 57.5759 15.286C57.5759 15.8533 57.7446 16.2903 58.0819 16.597C58.4192 16.9037 58.8486 17.057 59.3699 17.057ZM67.2503 17.31C67.6949 17.31 68.0093 17.2027 68.1933 16.988C68.3926 16.758 68.5076 16.4743 68.5383 16.137C68.5843 15.7843 68.6073 15.24 68.6073 14.504V3.625C68.6073 3.04233 68.6303 2.544 68.6763 2.13L67.0433 2.222V1.256C67.9633 1.256 68.6149 1.20233 68.9983 1.095C69.3969 0.987666 69.7036 0.834332 69.9183 0.634999H70.5853L70.6083 15.562C70.6083 16.16 70.5699 16.6813 70.4933 17.126L71.9423 17.057V18H67.2503V17.31Z" fill="#1C3ED3"/>
</svg>
