<svg width="110" height="20" viewBox="0 0 110 20" fill="none" xmlns="http://www.w3.org/2000/svg">
<rect width="110" height="20" fill="white"/>
<path d="M9.1618 17.46C9.5098 17.46 9.7558 17.376 9.8998 17.208C10.0558 17.028 10.1458 16.806 10.1698 16.542C10.2058 16.266 10.2238 15.84 10.2238 15.264V6.75C10.2238 6.294 10.2418 5.904 10.2778 5.58L8.9998 5.652V4.896C9.7198 4.896 10.2298 4.854 10.5298 4.77C10.8418 4.686 11.0818 4.566 11.2498 4.41H11.7718L11.7898 16.092C11.7898 16.56 11.7598 16.968 11.6998 17.316L12.8338 17.262V18H9.1618V17.46ZM16.0281 7.038C15.7761 7.038 15.5541 6.936 15.3621 6.732C15.1701 6.516 15.0741 6.264 15.0741 5.976C15.0741 5.688 15.1701 5.436 15.3621 5.22C15.5661 5.004 15.7941 4.896 16.0461 4.896C16.3221 4.896 16.5501 5.004 16.7301 5.22C16.9221 5.424 17.0181 5.676 17.0181 5.976C17.0181 6.264 16.9161 6.516 16.7121 6.732C16.5201 6.936 16.2921 7.038 16.0281 7.038ZM14.2461 17.46C14.5941 17.46 14.8401 17.376 14.9841 17.208C15.1401 17.028 15.2301 16.806 15.2541 16.542C15.2901 16.266 15.3081 15.84 15.3081 15.264V11.16C15.3081 10.812 15.3321 10.422 15.3801 9.99L14.1021 10.062V9.306C14.8101 9.306 15.3141 9.264 15.6141 9.18C15.9261 9.096 16.1661 8.976 16.3341 8.82H16.8561V16.092C16.8561 16.632 16.8321 17.04 16.7841 17.316L17.9181 17.262V18H14.2461V17.46ZM22.9739 18.288C21.3299 18.288 20.5139 17.184 20.5259 14.976L20.5619 9.756L19.1759 9.774V9C19.7519 8.988 20.2379 8.73 20.6339 8.226C21.0419 7.71 21.3419 7.128 21.5339 6.48H22.1459V9H25.1699V9.702L22.1459 9.738C22.1339 11.574 22.1219 12.846 22.1099 13.554C22.1099 14.262 22.1099 14.658 22.1099 14.742C22.1099 15.594 22.2119 16.23 22.4159 16.65C22.6199 17.058 22.9739 17.262 23.4779 17.262C23.7899 17.262 24.0959 17.166 24.3959 16.974C24.7079 16.782 24.9779 16.518 25.2059 16.182L25.6919 16.578C25.2239 17.274 24.7619 17.736 24.3059 17.964C23.8499 18.18 23.4059 18.288 22.9739 18.288ZM70.933 18.288C70.117 18.288 69.367 18.102 68.683 17.73C68.011 17.358 67.477 16.824 67.081 16.128C66.685 15.432 66.487 14.61 66.487 13.662C66.487 12.822 66.685 12.024 67.081 11.268C67.489 10.5 68.047 9.882 68.755 9.414C69.475 8.946 70.285 8.712 71.185 8.712C71.833 8.712 72.409 8.814 72.913 9.018C73.417 9.222 73.807 9.492 74.083 9.828C74.371 10.164 74.515 10.53 74.515 10.926C74.515 11.202 74.437 11.43 74.281 11.61C74.125 11.79 73.909 11.88 73.633 11.88C73.369 11.88 73.171 11.796 73.039 11.628C72.907 11.448 72.841 11.262 72.841 11.07C72.841 10.77 72.931 10.53 73.111 10.35C72.979 9.978 72.721 9.726 72.337 9.594C71.965 9.45 71.593 9.378 71.221 9.378C70.669 9.378 70.171 9.528 69.727 9.828C69.295 10.128 68.953 10.566 68.701 11.142C68.449 11.718 68.323 12.408 68.323 13.212C68.323 14.016 68.449 14.73 68.701 15.354C68.965 15.978 69.331 16.47 69.799 16.83C70.267 17.178 70.807 17.352 71.419 17.352C71.959 17.352 72.487 17.208 73.003 16.92C73.531 16.62 73.945 16.248 74.245 15.804L74.713 16.164C74.269 16.86 73.693 17.388 72.985 17.748C72.289 18.108 71.605 18.288 70.933 18.288ZM75.9411 17.46C76.2891 17.46 76.5351 17.376 76.6791 17.208C76.8351 17.028 76.9251 16.806 76.9491 16.542C76.9851 16.266 77.0031 15.84 77.0031 15.264V6.75C77.0031 6.294 77.0211 5.904 77.0571 5.58L75.7791 5.652V4.896C76.4991 4.896 77.0091 4.854 77.3091 4.77C77.6211 4.686 77.8611 4.566 78.0291 4.41H78.5511L78.5691 16.092C78.5691 16.56 78.5391 16.968 78.4791 17.316L79.6131 17.262V18H75.9411V17.46ZM84.8234 18.288C83.8034 18.288 83.0534 17.994 82.5734 17.406C82.1054 16.818 81.8714 15.804 81.8714 14.364V11.16C81.8714 10.656 81.8954 10.266 81.9434 9.99L80.7014 10.044V9.306H81.2594C81.7274 9.306 82.0814 9.264 82.3214 9.18C82.5614 9.096 82.7654 8.976 82.9334 8.82H83.4554V14.31C83.4554 15.366 83.5994 16.14 83.8874 16.632C84.1874 17.124 84.6794 17.37 85.3634 17.37C85.8074 17.37 86.2394 17.238 86.6594 16.974C87.0914 16.71 87.4394 16.38 87.7034 15.984V11.358C87.7034 10.794 87.7334 10.338 87.7934 9.99L86.4974 10.044V9.306H87.0554C87.5234 9.306 87.8774 9.264 88.1174 9.18C88.3574 9.096 88.5614 8.976 88.7294 8.82H89.2514L89.2334 15.624C89.2334 16.32 89.2094 16.884 89.1614 17.316L90.4574 17.244V18H87.8834C87.8234 17.628 87.7814 17.268 87.7574 16.92C87.3614 17.316 86.8994 17.646 86.3714 17.91C85.8434 18.162 85.3274 18.288 84.8234 18.288ZM96.0136 18.288C95.5336 18.288 95.0596 18.204 94.5916 18.036C94.1236 17.868 93.7156 17.586 93.3676 17.19L92.9356 18H92.3056L92.3416 6.75C92.3416 6.294 92.3596 5.904 92.3956 5.58L91.1176 5.652V4.896C91.8376 4.896 92.3476 4.854 92.6476 4.77C92.9596 4.686 93.1996 4.566 93.3676 4.41H93.8896V9.774C94.2256 9.438 94.6216 9.18 95.0776 9C95.5456 8.808 96.0556 8.712 96.6076 8.712C97.3756 8.712 98.0716 8.898 98.6956 9.27C99.3196 9.642 99.8056 10.176 100.154 10.872C100.514 11.568 100.694 12.372 100.694 13.284C100.694 14.28 100.478 15.156 100.046 15.912C99.6136 16.668 99.0376 17.256 98.3176 17.676C97.5976 18.084 96.8296 18.288 96.0136 18.288ZM96.0136 17.55C96.8776 17.55 97.5616 17.202 98.0656 16.506C98.5816 15.798 98.8396 14.874 98.8396 13.734C98.8396 12.474 98.6056 11.472 98.1376 10.728C97.6696 9.972 96.9796 9.594 96.0676 9.594C95.6716 9.594 95.2756 9.69 94.8796 9.882C94.4956 10.062 94.1656 10.308 93.8896 10.62V15.174C93.8896 16.758 94.5976 17.55 96.0136 17.55Z" fill="#333333"/>
<path d="M26.5508 17.46C26.8988 17.46 27.1448 17.376 27.2888 17.208C27.4448 17.028 27.5348 16.806 27.5588 16.542C27.5948 16.266 27.6128 15.84 27.6128 15.264V11.16C27.6128 10.656 27.6368 10.266 27.6848 9.99L26.4068 10.062V9.306C27.1148 9.306 27.6008 9.27 27.8648 9.198C28.1288 9.114 28.3508 8.988 28.5308 8.82H29.0528C29.0768 9 29.1008 9.318 29.1248 9.774C29.4968 9.45 29.9168 9.192 30.3848 9C30.8528 8.808 31.3148 8.712 31.7708 8.712C32.3588 8.712 32.8568 8.82 33.2648 9.036C33.6848 9.24 34.0088 9.534 34.2368 9.918C34.6688 9.57 35.1488 9.282 35.6768 9.054C36.2168 8.826 36.7328 8.712 37.2248 8.712C38.2808 8.712 39.0488 9.036 39.5288 9.684C40.0208 10.32 40.2548 11.34 40.2308 12.744L40.2128 16.092C40.2128 16.632 40.1888 17.04 40.1408 17.316L41.2748 17.262V18H37.6028V17.46C37.9508 17.46 38.1968 17.376 38.3408 17.208C38.4968 17.028 38.5868 16.806 38.6108 16.542C38.6468 16.266 38.6648 15.84 38.6648 15.264V12.744C38.6648 11.712 38.5028 10.944 38.1788 10.44C37.8548 9.924 37.3448 9.666 36.6488 9.666C36.2768 9.666 35.8988 9.75 35.5148 9.918C35.1428 10.074 34.8128 10.284 34.5248 10.548C34.6448 10.92 34.7048 11.358 34.7048 11.862L34.6688 16.092C34.6688 16.632 34.6448 17.04 34.5968 17.316L35.7308 17.262V18H32.0588V17.46C32.4068 17.46 32.6528 17.376 32.7968 17.208C32.9528 17.028 33.0428 16.812 33.0668 16.56C33.0908 16.296 33.1088 15.864 33.1208 15.264L33.1388 12.744C33.1508 11.7 33.0008 10.92 32.6888 10.404C32.3768 9.888 31.8788 9.63 31.1948 9.63C30.8228 9.63 30.4508 9.708 30.0788 9.864C29.7188 10.02 29.4068 10.23 29.1428 10.494L29.1608 11.466V16.092C29.1608 16.632 29.1368 17.04 29.0888 17.316L30.2228 17.262V18H26.5508V17.46ZM46.9908 18.288C46.1628 18.288 45.4128 18.096 44.7408 17.712C44.0808 17.316 43.5588 16.758 43.1748 16.038C42.7908 15.306 42.5988 14.466 42.5988 13.518C42.5988 12.678 42.7908 11.892 43.1748 11.16C43.5588 10.416 44.0928 9.822 44.7768 9.378C45.4728 8.934 46.2588 8.712 47.1348 8.712C47.8188 8.712 48.4368 8.862 48.9888 9.162C49.5408 9.462 49.9788 9.912 50.3028 10.512C50.6268 11.1 50.7888 11.826 50.7888 12.69L44.4528 12.798C44.4408 14.238 44.6748 15.36 45.1548 16.164C45.6468 16.968 46.4028 17.37 47.4228 17.37C47.9748 17.37 48.5388 17.226 49.1148 16.938C49.7028 16.65 50.1528 16.296 50.4648 15.876L50.8968 16.236C50.4408 16.932 49.8468 17.448 49.1148 17.784C48.3948 18.12 47.6868 18.288 46.9908 18.288ZM49.0968 12.042C49.0968 11.322 48.9348 10.704 48.6108 10.188C48.2868 9.672 47.8008 9.414 47.1528 9.414C45.6648 9.414 44.7828 10.29 44.5068 12.042H49.0968ZM54.8755 18.288C53.9995 18.288 53.3275 18.09 52.8595 17.694C52.4035 17.298 52.1755 16.782 52.1755 16.146C52.1755 15.45 52.4515 14.862 53.0035 14.382C53.5675 13.902 54.2695 13.548 55.1095 13.32C55.9615 13.08 56.8135 12.966 57.6655 12.978V11.862C57.6655 11.082 57.5515 10.476 57.3235 10.044C57.0955 9.6 56.6095 9.378 55.8655 9.378C55.4935 9.378 55.1395 9.456 54.8035 9.612C54.4675 9.768 54.2215 10.002 54.0655 10.314C54.2215 10.482 54.2995 10.71 54.2995 10.998C54.2995 11.178 54.2335 11.352 54.1015 11.52C53.9695 11.676 53.7775 11.754 53.5255 11.754C53.2735 11.754 53.0755 11.676 52.9315 11.52C52.7875 11.352 52.7155 11.136 52.7155 10.872C52.7155 10.476 52.8655 10.116 53.1655 9.792C53.4775 9.456 53.9035 9.192 54.4435 9C54.9955 8.808 55.6075 8.712 56.2795 8.712C57.2875 8.712 58.0315 8.982 58.5115 9.522C58.9915 10.05 59.2255 10.89 59.2135 12.042L59.1955 16.092C59.1955 16.476 59.1715 16.884 59.1235 17.316L60.4015 17.244V18H57.8275C57.7915 17.82 57.7495 17.478 57.7015 16.974C56.8255 17.85 55.8835 18.288 54.8755 18.288ZM55.2895 17.262C55.7455 17.262 56.1595 17.178 56.5315 17.01C56.9035 16.83 57.2815 16.56 57.6655 16.2C57.6535 16.02 57.6475 15.714 57.6475 15.282L57.6655 13.59C56.6815 13.626 55.8055 13.83 55.0375 14.202C54.2695 14.562 53.8855 15.12 53.8855 15.876C53.8855 16.32 54.0175 16.662 54.2815 16.902C54.5455 17.142 54.8815 17.262 55.2895 17.262ZM61.4567 17.46C61.8047 17.46 62.0507 17.376 62.1947 17.208C62.3507 17.028 62.4407 16.806 62.4647 16.542C62.5007 16.266 62.5187 15.84 62.5187 15.264V6.75C62.5187 6.294 62.5367 5.904 62.5727 5.58L61.2947 5.652V4.896C62.0147 4.896 62.5247 4.854 62.8247 4.77C63.1367 4.686 63.3767 4.566 63.5447 4.41H64.0667L64.0847 16.092C64.0847 16.56 64.0547 16.968 63.9947 17.316L65.1287 17.262V18H61.4567V17.46Z" fill="#1C3ED3"/>
</svg>
